<svg width="512" height="512" viewBox="0 0 512 512" fill="none" xmlns="http://www.w3.org/2000/svg">
<path d="M358.922 158.162V119.229L380.633 161.097C383.448 166.515 388.764 167.948 392.785 166.965C396.603 166.031 401.061 162.459 401.061 155.462V78.0742C401.061 72.5526 396.584 68.075 391.062 68.075C385.54 68.075 381.063 72.5526 381.063 78.0742V118.485L357.799 73.6205C355.678 69.5298 351.034 67.415 346.553 68.5099C342.075 69.6018 338.923 73.6135 338.923 78.2242V158.163C338.923 163.685 343.401 168.163 348.922 168.163C354.444 168.163 358.922 163.685 358.922 158.162V158.162Z" fill="#0E3AAF"/>
<path d="M329.068 158.115V78.1211C329.068 72.5995 324.591 68.1218 319.069 68.1218C313.547 68.1218 309.07 72.5995 309.07 78.1211V158.115C309.07 163.637 313.547 168.114 319.069 168.114C324.591 168.114 329.068 163.638 329.068 158.115Z" fill="#0E3AAF"/>
<path d="M105.631 100.119V136.117C105.631 153.76 119.985 168.114 137.629 168.114C155.273 168.114 169.627 153.76 169.627 136.117V100.119C169.627 82.4758 155.273 68.1218 137.629 68.1218C119.985 68.1218 105.631 82.4768 105.631 100.119V100.119ZM149.628 100.119V136.117C149.628 142.733 144.245 148.116 137.629 148.116C131.012 148.116 125.63 142.733 125.63 136.117V100.119C125.63 93.5029 131.012 88.1203 137.629 88.1203C144.245 88.1203 149.628 93.5029 149.628 100.119V100.119Z" fill="#0E3AAF"/>
<path d="M175.654 100.119V136.117C175.654 153.76 190.008 168.114 207.651 168.114C225.295 168.114 239.649 153.76 239.649 136.117V100.119C239.649 82.4758 225.295 68.1218 207.651 68.1218C190.008 68.1218 175.654 82.4768 175.654 100.119V100.119ZM219.651 100.119V136.117C219.651 142.733 214.268 148.116 207.651 148.116C201.035 148.116 195.652 142.733 195.652 136.117V100.119C195.652 93.5029 201.035 88.1203 207.651 88.1203C214.268 88.1203 219.651 93.5029 219.651 100.119V100.119Z" fill="#0E3AAF"/>
<path d="M440.652 88.1203C446.032 88.1203 450.853 91.7161 452.378 96.8627C453.945 102.157 459.505 105.182 464.806 103.61C470.101 102.042 473.122 96.4777 471.553 91.1831C467.532 77.6051 454.825 68.1218 440.653 68.1218C422.885 68.1218 408.429 82.5778 408.429 100.346V135.89C408.429 153.659 422.885 168.115 440.653 168.115C454.791 168.115 467.489 158.661 471.534 145.124C471.811 144.195 471.952 143.231 471.952 142.262V122.719C471.952 117.197 467.474 112.72 461.953 112.72H452.695C447.174 112.72 442.696 117.197 442.696 122.719C442.696 127.991 446.778 132.311 451.953 132.691V140.574C450.083 145.072 445.6 148.118 440.653 148.118C433.912 148.118 428.427 142.633 428.427 135.891V100.347C428.427 93.6049 433.911 88.1203 440.652 88.1203Z" fill="#0E3AAF"/>
<path d="M65.2332 68.1218H49.9963C44.4747 68.1218 39.9971 72.5995 39.9971 78.1211V158.115C39.9971 160.779 41.06 163.334 42.9508 165.212C44.8247 167.071 47.3575 168.114 49.9963 168.114H50.0673C50.2013 168.113 63.4963 168.018 69.2919 168.018C86.6786 168.018 100.823 153.873 100.823 136.488C100.823 126.584 96.2299 117.739 89.0664 111.954C91.9542 107.508 93.6391 102.212 93.6391 96.5277C93.6391 80.8659 80.896 68.1218 65.2332 68.1218V68.1218ZM59.9956 88.1203H65.2332C69.8699 88.1203 73.6406 91.8911 73.6406 96.5277C73.6406 101.163 69.8699 104.934 65.2332 104.934C63.7893 104.934 61.9234 104.941 59.9956 104.951V88.1203ZM69.2919 148.021C66.9491 148.021 63.4103 148.037 59.9956 148.054V124.956H69.2919C75.6504 124.956 80.824 130.129 80.824 136.488C80.824 142.846 75.6504 148.021 69.2919 148.021V148.021Z" fill="#0E3AAF"/>
<path d="M256.521 68.075C250.999 68.075 246.521 72.5526 246.521 78.0742V158.163C246.521 163.685 250.999 168.163 256.521 168.163C262.042 168.163 266.52 163.685 266.52 158.163V141.16L285.67 164.505C287.647 166.915 290.515 168.163 293.406 168.163C295.637 168.163 297.883 167.42 299.742 165.894C304.012 162.391 304.634 156.09 301.131 151.822L272.095 116.424L298.195 85.5387C301.759 81.321 301.229 75.0124 297.011 71.4477C292.796 67.885 286.485 68.4139 282.92 72.6316L266.52 92.0392V78.0742C266.52 72.5516 262.042 68.075 256.521 68.075Z" fill="#0E3AAF"/>
<path d="M461.966 0H300.978C295.456 0 290.978 4.47767 290.978 9.99926C290.978 15.5208 295.456 19.9985 300.978 19.9985H461.966C478.506 19.9985 491.963 33.4555 491.963 49.9963V185.986C491.963 202.527 478.506 215.984 461.966 215.984H216.805C214.124 209.373 209.361 203.87 203.085 200.247C195.63 195.942 186.948 194.799 178.633 197.027C168.527 199.735 160.833 206.988 157.145 215.984H49.9963C33.4555 215.984 19.9985 202.527 19.9985 185.986V49.9963C19.9985 33.4555 33.4555 19.9985 49.9963 19.9985H210.984C216.506 19.9985 220.984 15.5208 220.984 9.99926C220.984 4.47767 216.506 0 210.984 0H49.9963C22.4283 0 0 22.4283 0 49.9963V185.986C0 213.554 22.4283 235.982 49.9963 235.982H155.83C155.868 236.132 155.79 235.832 155.83 235.982L186.729 354.687L176.594 344.558C165.963 333.936 149.621 330.963 135.927 337.164C126.55 341.412 119.389 349.476 116.282 359.291C113.176 369.107 114.39 379.823 119.615 388.693L152.04 443.738C167.538 470.048 190.669 490.067 218.931 501.63C235.792 508.527 253.457 511.999 271.232 511.999C283.25 511.998 295.319 510.411 307.216 507.223C371.989 489.868 410.566 423.05 393.211 358.277L373.301 286.915C368.735 269.871 351.15 259.726 334.11 264.287C328.844 265.698 324.134 268.368 320.3 272.034C312.509 263.22 300.129 259.027 288.015 262.272C282.629 263.714 277.825 266.476 273.946 270.273C271.783 267.934 269.258 265.907 266.421 264.269C259.018 259.994 250.394 258.858 242.138 261.073C237.84 262.225 233.983 264.205 230.687 266.795L222.43 235.982H461.966C489.534 235.982 511.962 213.554 511.962 185.986V49.9963C511.962 22.4283 489.534 0 461.966 0V0ZM238.406 342.177C239.262 342.176 240.134 342.066 241 341.833C246.335 340.403 249.5 334.92 248.071 329.587L238.827 295.089C237.114 288.697 240.922 282.103 247.315 280.39C250.411 279.559 253.644 279.985 256.421 281.589C259.197 283.192 261.183 285.78 262.013 288.877L271.256 323.373C272.686 328.708 278.169 331.877 283.502 330.443C288.837 329.014 292.002 323.531 290.572 318.197L284.702 296.288C283.873 293.191 284.299 289.957 285.901 287.181C287.505 284.405 290.091 282.419 293.188 281.589C299.582 279.879 306.174 283.683 307.888 290.074L313.759 311.985C314.956 316.454 318.995 319.399 323.411 319.399C324.267 319.398 325.139 319.288 326.005 319.055C331.339 317.625 334.505 312.143 333.075 306.809L330.795 298.301C329.085 291.909 332.891 285.317 339.283 283.604C345.673 281.894 352.268 285.699 353.982 292.09L373.891 363.452C388.392 417.574 356.16 473.403 302.039 487.906C250.798 501.638 196.196 479.301 169.269 433.589L136.845 378.544C134.462 374.498 133.93 369.805 135.347 365.327C136.765 360.85 139.901 357.318 144.177 355.382C150.33 352.595 157.676 353.929 162.457 358.704L198.645 394.868C201.839 398.059 206.774 398.715 210.687 396.47C214.603 394.225 216.529 389.634 215.387 385.267L175.161 231.318C174.316 228.163 174.75 224.868 176.383 222.041C178.016 219.213 180.653 217.19 183.806 216.345C186.959 215.499 190.255 215.932 193.084 217.567C195.911 219.2 197.934 221.837 198.779 224.99C198.779 224.99 228.875 335.182 228.934 335.342C230.315 339.48 234.186 342.177 238.406 342.177V342.177Z" fill="#0E3AAF"/>
<path d="M255.981 19.9985C261.504 19.9985 265.98 15.5217 265.98 9.99926C265.98 4.47682 261.504 0 255.981 0C250.459 0 245.982 4.47682 245.982 9.99926C245.982 15.5217 250.459 19.9985 255.981 19.9985Z" fill="#0E3AAF"/>
</svg>
